<svg width="16" height="16" viewBox="0 0 16 16" fill="none" xmlns="http://www.w3.org/2000/svg">
<path d="M13.657 2.34299C13.8428 2.52871 13.9901 2.7492 14.0906 2.99185C14.1911 3.23451 14.2428 3.49459 14.2428 3.75724C14.2428 4.0199 14.1911 4.27998 14.0906 4.52263C13.9901 4.76529 13.8428 4.98578 13.657 5.17149L6.27003 12.558C5.9496 12.8784 5.54812 13.1056 5.10853 13.2155L2.81753 13.7885C2.73374 13.8095 2.64594 13.8084 2.56268 13.7854C2.47943 13.7623 2.40357 13.7181 2.34249 13.657C2.28141 13.5959 2.2372 13.5201 2.21416 13.4368C2.19112 13.3536 2.19004 13.2658 2.21103 13.182L2.78403 10.891C2.89389 10.4514 3.12115 10.0499 3.44153 9.72949L10.8285 2.34299C11.0142 2.15727 11.2347 2.00994 11.4774 1.90942C11.72 1.80891 11.9801 1.75717 12.2428 1.75717C12.5054 1.75717 12.7655 1.80891 13.0082 1.90942C13.2508 2.00994 13.4713 2.15727 13.657 2.34299ZM10.1215 4.46499L4.14903 10.4365C3.95679 10.6288 3.82043 10.8697 3.75453 11.1335L3.38403 12.616L4.86653 12.2455C5.13038 12.1795 5.3713 12.0429 5.56353 11.8505L11.535 5.87899L10.121 4.46499H10.1215ZM11.535 3.04999L10.828 3.75749L12.242 5.17149L12.95 4.46449C13.1376 4.27685 13.243 4.02238 13.2429 3.75707C13.2429 3.49175 13.1374 3.23732 12.9498 3.04974C12.7621 2.86217 12.5077 2.75682 12.2423 2.75687C11.977 2.75691 11.7226 2.86235 11.535 3.04999Z" fill="#6F6F6F"/>
</svg>
